<svg width="64" height="64" viewBox="0 0 64 64" fill="none" xmlns="http://www.w3.org/2000/svg">
  <!-- Background gradient circle -->
  <circle cx="32" cy="32" r="32" fill="url(#gradient)"/>
  
  <!-- AI symbol - modern geometric brain/neural network -->
  <g transform="translate(16, 16)">
    <!-- Center node -->
    <circle cx="16" cy="16" r="4" fill="white" opacity="0.95"/>
    
    <!-- Neural connections -->
    <path d="M16 12 L16 4" stroke="white" stroke-width="2" opacity="0.7" stroke-linecap="round"/>
    <path d="M16 20 L16 28" stroke="white" stroke-width="2" opacity="0.7" stroke-linecap="round"/>
    <path d="M12 16 L4 16" stroke="white" stroke-width="2" opacity="0.7" stroke-linecap="round"/>
    <path d="M20 16 L28 16" stroke="white" stroke-width="2" opacity="0.7" stroke-linecap="round"/>
    
    <!-- Diagonal connections -->
    <path d="M13 13 L7 7" stroke="white" stroke-width="2" opacity="0.6" stroke-linecap="round"/>
    <path d="M19 19 L25 25" stroke="white" stroke-width="2" opacity="0.6" stroke-linecap="round"/>
    <path d="M19 13 L25 7" stroke="white" stroke-width="2" opacity="0.6" stroke-linecap="round"/>
    <path d="M13 19 L7 25" stroke="white" stroke-width="2" opacity="0.6" stroke-linecap="round"/>
    
    <!-- Outer nodes -->
    <circle cx="16" cy="4" r="2.5" fill="white" opacity="0.85"/>
    <circle cx="16" cy="28" r="2.5" fill="white" opacity="0.85"/>
    <circle cx="4" cy="16" r="2.5" fill="white" opacity="0.85"/>
    <circle cx="28" cy="16" r="2.5" fill="white" opacity="0.85"/>
    
    <!-- Corner nodes -->
    <circle cx="7" cy="7" r="2" fill="white" opacity="0.75"/>
    <circle cx="25" cy="25" r="2" fill="white" opacity="0.75"/>
    <circle cx="25" cy="7" r="2" fill="white" opacity="0.75"/>
    <circle cx="7" cy="25" r="2" fill="white" opacity="0.75"/>
  </g>
  
  <!-- Gradient definition -->
  <defs>
    <linearGradient id="gradient" x1="0%" y1="0%" x2="100%" y2="100%">
      <stop offset="0%" style="stop-color:#14B8A6;stop-opacity:1" />
      <stop offset="100%" style="stop-color:#A855F7;stop-opacity:1" />
    </linearGradient>
  </defs>
</svg>

